{
  "accessors": [
    {
      "bufferView": 2,
      "componentType": 5126,
      "count": 640,
      "max": [
        0.029357004910707474,
        0.49271801114082336,
        0.02900942787528038
      ],
      "min": [
        -0.029356870800256729,
        0.2975820004940033,
        -0.030578449368476868
      ],
      "type": "VEC3"
    },
    {
      "bufferView": 2,
      "byteOffset": 7680,
      "componentType": 5126,
      "count": 640,
      "max": [
        0.99871742725372314,
        0.78114610910415649,
        0.9986799955368042
      ],
      "min": [
        -0.99871742725372314,
        -1,
        -0.9986799955368042
      ],
      "type": "VEC3"
    },
    {
      "bufferView": 3,
      "componentType": 5126,
      "count": 640,
      "max": [
        0.99827367067337036,
        0.99871790409088135,
        0.70892477035522461,
        1
      ],
      "min": [
        -0.9999879002571106,
        -0.99871790409088135,
        -0.7089240550994873,
        1
      ],
      "type": "VEC4"
    },
    {
      "bufferView": 1,
      "componentType": 5126,
      "count": 640,
      "max": [
        0.99707138538360596,
        0.9972108006477356
      ],
      "min": [
        0.0064215348102152348,
        0.0089479405432939529
      ],
      "type": "VEC2"
    },
    {
      "bufferView": 0,
      "componentType": 5125,
      "count": 3444,
      "max": [
        639
      ],
      "min": [
        0
      ],
      "type": "SCALAR"
    },
    {
      "bufferView": 2,
      "byteOffset": 15360,
      "componentType": 5126,
      "count": 2655,
      "max": [
        0.044701375067234039,
        0.29758203029632568,
        0.044701330363750458
      ],
      "min": [
        -0.044701233506202698,
        -0.18755689263343811,
        -0.044701293110847473
      ],
      "type": "VEC3"
    },
    {
      "bufferView": 2,
      "byteOffset": 47220,
      "componentType": 5126,
      "count": 2655,
      "max": [
        1,
        1,
        1
      ],
      "min": [
        -1,
        -1,
        -1
      ],
      "type": "VEC3"
    },
    {
      "bufferView": 3,
      "byteOffset": 10240,
      "componentType": 5126,
      "count": 2655,
      "max": [
        1,
        1,
        1,
        1
      ],
      "min": [
        -1,
        -1,
        -1,
        -1
      ],
      "type": "VEC4"
    },
    {
      "bufferView": 1,
      "byteOffset": 5120,
      "componentType": 5126,
      "count": 2655,
      "max": [
        0.98898518085479736,
        0.98891675472259521
      ],
      "min": [
        0.0089235026389360428,
        0.0095730423927307129
      ],
      "type": "VEC2"
    },
    {
      "bufferView": 0,
      "byteOffset": 13776,
      "componentType": 5125,
      "count": 10734,
      "max": [
        2654
      ],
      "min": [
        0
      ],
      "type": "SCALAR"
    }
  ],
  "asset": {
    "extras": {
      "author": "Andremo (https://sketchfab.com/andremo)",
      "license": "CC-BY-4.0 (http://creativecommons.org/licenses/by/4.0/)",
      "source": "https://sketchfab.com/models/daf6f63d08eb4c9b9e16d1ff7f2dc71a",
      "title": "Sniper Bullet"
    },
    "generator": "Sketchfab-3.18.8",
    "version": "2.0"
  },
  "bufferViews": [
    {
      "buffer": 0,
      "byteLength": 56712,
      "byteOffset": 0,
      "name": "floatBufferViews",
      "target": 34963
    },
    {
      "buffer": 0,
      "byteLength": 26360,
      "byteOffset": 56712,
      "byteStride": 8,
      "name": "floatBufferViews",
      "target": 34962
    },
    {
      "buffer": 0,
      "byteLength": 79080,
      "byteOffset": 83072,
      "byteStride": 12,
      "name": "floatBufferViews",
      "target": 34962
    },
    {
      "buffer": 0,
      "byteLength": 52720,
      "byteOffset": 162152,
      "byteStride": 16,
      "name": "floatBufferViews",
      "target": 34962
    }
  ],
  "buffers": [
    {
      "byteLength": 214872,
      "uri": "scene.bin"
    }
  ],
  "images": [
    {
      "uri": "textures/Material_Capsula_baseColor.png"
    },
    {
      "uri": "textures/Material_Capsula_normal.png"
    },
    {
      "uri": "textures/Material_Capsula_metallicRoughness.png"
    },
    {
      "uri": "textures/Material_Projetil_baseColor.png"
    },
    {
      "uri": "textures/Material_Projetil_metallicRoughness.png"
    }
  ],
  "materials": [
    {
      "doubleSided": true,
      "name": "Material_Projetil",
      "occlusionTexture": {
        "index": 4,
        "strength": 1,
        "texCoord": 0
      },
      "pbrMetallicRoughness": {
        "baseColorFactor": [
          1,
          1,
          1,
          1
        ],
        "baseColorTexture": {
          "index": 3,
          "texCoord": 0
        },
        "metallicFactor": 1,
        "metallicRoughnessTexture": {
          "index": 4,
          "texCoord": 0
        },
        "roughnessFactor": 1
      }
    },
    {
      "doubleSided": true,
      "name": "Material_Capsula",
      "normalTexture": {
        "index": 1,
        "scale": 1,
        "texCoord": 0
      },
      "occlusionTexture": {
        "index": 2,
        "strength": 1,
        "texCoord": 0
      },
      "pbrMetallicRoughness": {
        "baseColorFactor": [
          1,
          1,
          1,
          1
        ],
        "baseColorTexture": {
          "index": 0,
          "texCoord": 0
        },
        "metallicFactor": 1,
        "metallicRoughnessTexture": {
          "index": 2,
          "texCoord": 0
        },
        "roughnessFactor": 1
      }
    }
  ],
  "meshes": [
    {
      "name": "Cylinder.001_Material_Projetil_0",
      "primitives": [
        {
          "attributes": {
            "NORMAL": 1,
            "POSITION": 0,
            "TANGENT": 2,
            "TEXCOORD_0": 3
          },
          "indices": 4,
          "material": 0,
          "mode": 4
        }
      ]
    },
    {
      "name": "Cylinder_Material_Capsula_0",
      "primitives": [
        {
          "attributes": {
            "NORMAL": 6,
            "POSITION": 5,
            "TANGENT": 7,
            "TEXCOORD_0": 8
          },
          "indices": 9,
          "material": 1,
          "mode": 4
        }
      ]
    }
  ],
  "nodes": [
    {
      "children": [
        1
      ],
      "name": "RootNode (gltf orientation matrix)",
      "rotation": [
        -0.70710678118654746,
        -0,
        -0,
        0.70710678118654757
      ]
    },
    {
      "children": [
        2
      ],
      "name": "RootNode (model correction matrix)"
    },
    {
      "children": [
        3
      ],
      "matrix": [
        1,
        0,
        0,
        0,
        0,
        0,
        1,
        0,
        0,
        -1,
        0,
        0,
        0,
        0,
        0,
        1
      ],
      "name": "3e77b97e9056450ebb49d6d15ec8fa68.fbx"
    },
    {
      "children": [
        4,
        6
      ],
      "name": "RootNode"
    },
    {
      "children": [
        5
      ],
      "matrix": [
        100,
        0,
        0,
        0,
        -0,
        -1.5676696575734726e-05,
        -96.222877502440141,
        0,
        0,
        99.999999999998678,
        -1.6292067939183141e-05,
        0,
        -1.7659371694787201e-16,
        -1.083027720451355,
        15.11083984375,
        1
      ],
      "name": "Cylinder.001"
    },
    {
      "mesh": 0,
      "name": "Cylinder.001_Material_Projetil_0"
    },
    {
      "children": [
        7
      ],
      "matrix": [
        100,
        0,
        0,
        0,
        -0,
        -1.5676696575734726e-05,
        -96.222877502440141,
        0,
        0,
        99.999999999998678,
        -1.6292067939183141e-05,
        0,
        -1.7659371694787201e-16,
        -1.083027720451355,
        15.11083984375,
        1
      ],
      "name": "Cylinder"
    },
    {
      "mesh": 1,
      "name": "Cylinder_Material_Capsula_0"
    }
  ],
  "samplers": [
    {
      "magFilter": 9729,
      "minFilter": 9987,
      "wrapS": 10497,
      "wrapT": 10497
    }
  ],
  "scene": 0,
  "scenes": [
    {
      "name": "OSG_Scene",
      "nodes": [
        0
      ]
    }
  ],
  "textures": [
    {
      "sampler": 0,
      "source": 0
    },
    {
      "sampler": 0,
      "source": 1
    },
    {
      "sampler": 0,
      "source": 2
    },
    {
      "sampler": 0,
      "source": 3
    },
    {
      "sampler": 0,
      "source": 4
    }
  ]
}

